#!OML:ASF E:\Steps\Project 1\Capture day 1\Session 2\Subject.ASF
:FULLY-SPECIFIED
:DEGREES
457
root 3.45265 18.7877 7.42892 -154.267 2.23097 176.857
lowerback -31.3409 -3.39192 -5.6498
upperback -2.56397 -1.38164 -0.216861
thorax 13.6111 -0.49782 2.36702
lowerneck -2.41757 -2.25399 -2.74194
upperneck 1.50847 -2.98549 3.95333
head 0.985885 -1.45376 1.64935
rclavicle -1.43373e-014 1.63003e-014
rhumerus -36.119 -25.0872 -75.3407
rradius 24.23
rwrist 5.81529
rhand -10.1845 -412.74
rfingers 7.12502
rthumb 15.806 -442.114
lclavicle -1.43373e-014 1.63003e-014
lhumerus -33.3638 2.48508 83.8717
lradius 20.375
lwrist -3.65413
lhand -21.9052 -13.2187
lfingers 7.12502
lthumb 4.5003 16.7135
rfemur -24.0576 8.36884 16.5144
rtibia 10.3697
rfoot -21.6925 2.26597
rtoes -19.252
lfemur -21.7961 -5.61044 -27.0353
ltibia 11.1913
lfoot -12.6253 2.68858
ltoes -25.833
458
root 3.45686 18.7865 7.4161 -154.268 2.15874 176.928
lowerback -31.5058 -3.3988 -5.62544
upperback -2.54298 -1.37658 -0.240186
thorax 13.7048 -0.493129 2.32816
lowerneck -2.34999 -2.28328 -2.74427
upperneck 1.40435 -3.02371 4.06023
head 0.945285 -1.47205 1.68419
rclavicle 4.69629e-015 -1.19271e-014
rhumerus -35.8311 -24.8848 -75.6837
rradius 24.2463
rwrist 5.59393
rhand -10.5789 -412.974
rfingers 7.12502
rthumb 15.4261 -442.378
lclavicle 4.69629e-015 -1.19271e-014
lhumerus -33.1909 2.26418 83.9642
lradius 20.4632
lwrist -3.4984
lhand -21.8014 -12.9856
lfingers 7.12502
lthumb 4.60053 16.9444
rfemur -23.918 8.39726 16.6306
rtibia 10.2518
rfoot -21.7294 2.22082
rtoes -19.1246
lfemur -21.6771 -5.63834 -26.9138
ltibia 11.0505
lfoot -12.6083 2.67515
ltoes -25.7294
459
root 3.45886 18.7855 7.40587 -154.338 2.10651 176.961
lowerback -31.5862 -3.34761 -5.60753
upperback -2.47973 -1.30349 -0.309853
thorax 13.8041 -0.463431 2.27057
lowerneck -2.63978 -2.32252 -2.59573
upperneck 1.1513 -3.06579 3.96492
head 0.911956 -1.49108 1.62443
rclavicle -1.60767e-014 1.61016e-014
rhumerus -35.5068 -24.5609 -76.1573
rradius 24.4403
rwrist 5.20781
rhand -10.4336 -413.393
rfingers 7.12502
rthumb 15.5661 -442.787
lclavicle -1.60767e-014 1.61016e-014
lhumerus -32.8123 2.12889 84.0061
lradius 20.3438
lwrist -3.51483
lhand -21.9205 -12.9153
lfingers 7.12502
lthumb 4.48552 17.0172
rfemur -23.7651 8.3156 16.7267
rtibia 10.2297
rfoot -21.7733 2.30057
rtoes -18.786
lfemur -21.5111 -5.69218 -26.8539
ltibia 10.9758
lfoot -12.6894 2.69221
ltoes -25.9696
460
root 3.45843 18.7837 7.39674 -154.367 2.03169 176.896
lowerback -31.7896 -3.31737 -5.63117
upperback -2.35215 -1.22856 -0.421591
thorax 14.0302 -0.43934 2.18778
lowerneck -2.85003 -2.32313 -2.63269
upperneck 1.21866 -3.06336 3.96519
head 0.969957 -1.48752 1.62911
rclavicle -7.37988e-015 3.47873e-014
rhumerus -35.0933 -24.2284 -76.6688
rradius 24.7315
rwrist 4.93985
rhand -10.1642 -413.514
rfingers 7.12502
rthumb 15.8255 -442.887
lclavicle -7.37988e-015 3.47873e-014
lhumerus -32.2902 2.07619 83.9852
lradius 20.1747
lwrist -3.62137
lhand -22.1606 -13.2228
lfingers 7.12502
lthumb 4.25371 16.7145
rfemur -23.7122 8.20857 16.6974
rtibia 10.2885
rfoot -21.812 2.291
rtoes -18.6319
lfemur -21.4061 -5.76792 -26.9253
ltibia 10.9207
lfoot -12.6942 2.64252
ltoes -25.8934
461
root 3.45897 18.782 7.38877 -154.343 1.89675 176.828
lowerback -31.9407 -3.35739 -5.66842
upperback -2.30827 -1.23622 -0.504453
thorax 14.1445 -0.443416 2.11216
lowerneck -3.09374 -2.46611 -2.49939
upperneck 0.686112 -3.23453 3.95187
head 0.847344 -1.57019 1.59682
rclavicle 5.2181e-015 -4.09496e-014
rhumerus -34.7519 -24.1171 -76.9783
rradius 24.8099
rwrist 5.02667
rhand -10.0043 -413.251
rfingers 7.12502
rthumb 15.9795 -442.612
lclavicle 5.2181e-015 -4.09496e-014
lhumerus -32.0198 1.85901 84.0043
lradius 20.2417
lwrist -3.45408
lhand -22.4185 -13.4021
lfingers 7.12502
lthumb 4.00465 16.54
rfemur -23.6885 8.18853 16.6482
rtibia 10.3027
rfoot -21.8644 2.12373
rtoes -19.0233
lfemur -21.3706 -5.83847 -26.9754
ltibia 10.8602
lfoot -12.6509 2.55535
ltoes -25.7745
462
root 3.46067 18.7835 7.38329 -154.385 1.72553 176.828
lowerback -31.8422 -3.42656 -5.71355
upperback -2.37015 -1.30796 -0.51111
thorax 14.0363 -0.4699 2.10253
lowerneck -2.93581 -2.31938 -2.53234
upperneck 0.810532 -3.04575 4.21665
head 0.859402 -1.473 1.69258
rclavicle 9.36773e-015 1.82882e-014
rhumerus -34.535 -24.0898 -77.105
rradius 24.6894
rwrist 5.30486
rhand -9.81778 -412.691
rfingers 7.12502
rthumb 16.1591 -442.037
lclavicle 9.36773e-015 1.82882e-014
lhumerus -31.9753 1.60771 84.0986
lradius 20.4173
lwrist -3.1878
lhand -22.3617 -13.2126
lfingers 7.12502
lthumb 4.05949 16.7285
rfemur -23.5333 8.17647 16.7009
rtibia 10.2022
rfoot -21.891 1.96195
rtoes -19.4992
lfemur -21.2898 -5.93158 -26.909
ltibia 10.8453
lfoot -12.6529 2.47695
ltoes -25.4712
463
root 3.46109 18.7846 7.37759 -154.402 1.53875 176.856
lowerback -31.8121 -3.49137 -5.74151
upperback -2.40992 -1.38077 -0.489632
thorax 13.9838 -0.498998 2.11243
lowerneck -2.92769 -2.24928 -2.51241
upperneck 0.870226 -2.95483 4.23682
head 0.873542 -1.42689 1.69729
rclavicle -8.54774e-015 -9.14409e-015
rhumerus -34.2883 -23.8584 -77.3361
rradius 24.6823
rwrist 5.24819
rhand -10.0546 -412.45
rfingers 7.12502
rthumb 15.931 -441.815
lclavicle -8.54774e-015 -9.14409e-015
lhumerus -31.7672 1.67352 84.1471
lradius 20.3295
lwrist -3.26539
lhand -22.2196 -12.945
lfingers 7.12502
lthumb 4.19669 16.9934
rfemur -23.3558 7.97889 16.818
rtibia 10.0117
rfoot -21.8795 2.05006
rtoes -19.6166
lfemur -21.2552 -6.04011 -26.8151
ltibia 10.8765
lfoot -12.6515 2.357
ltoes -24.868
464
root 3.46161 18.7833 7.37107 -154.421 1.37013 176.821
lowerback -31.8334 -3.54336 -5.81262
upperback -2.41449 -1.413 -0.504682
thorax 13.9907 -0.514369 2.12103
lowerneck -3.14531 -2.50775 -2.34208
upperneck 0.231735 -3.27526 4.02891
head 0.713775 -1.58759 1.59394
rclavicle 1.56046e-014 -1.88845e-014
rhumerus -34.0741 -23.5447 -77.6244
rradius 24.8706
rwrist 4.95468
rhand -10.3123 -412.913
rfingers 7.12502
rthumb 15.6829 -442.297
lclavicle 1.56046e-014 -1.88845e-014
lhumerus -31.458 1.73903 84.1893
lradius 20.1139
lwrist -3.41078
lhand -22.1269 -13.105
lfingers 7.12502
lthumb 4.28626 16.8316
rfemur -23.1932 7.66942 16.876
rtibia 9.8535
rfoot -21.8989 2.14664
rtoes -19.658
lfemur -21.1877 -6.08892 -26.8353
ltibia 10.8312
lfoot -12.5571 2.25623
ltoes -24.8718
